<?xml version="1.0" encoding="UTF-8"?>
<!-- PLACEHOLDER: replace with the provided Vaden World artwork. Stamp -->
<svg xmlns="http://www.w3.org/2000/svg" width="277" height="84" viewBox="0 0 277 84" role="img">
<title>ALLEGED</title>
<defs><filter id="rough" x="-5%" y="-5%" width="110%" height="110%"><feTurbulence type="fractalNoise" baseFrequency="0.9" numOctaves="2" seed="7" result="n"/><feDisplacementMap in="SourceGraphic" in2="n" scale="2.2"/></filter></defs>
<g filter="url(#rough)" fill="none" stroke="#C8202B"><rect x="5" y="5" width="267" height="74" stroke-width="5"/><rect x="13" y="13" width="251" height="58" stroke-width="2"/></g>
<path filter="url(#rough)" fill="#C8202B" d="M58.92 56L49.56 56L48.4 52.12L38.76 52.12L37.6 56L28.56 56L38.6 28.48L48.88 28.48L58.92 56M43.52 36.16L40.6 45.96L46.56 45.96L43.68 36.16L43.52 36.16M64.24 56L64.24 28.48L73.08 28.48L73.08 48.96L87.2 48.96L87.2 56L64.24 56M92.92 56L92.92 28.48L101.76 28.48L101.76 48.96L115.88 48.96L115.88 56L92.92 56M121.6 56L121.6 28.48L145.4 28.48L145.4 35.08L130.44 35.08L130.44 38.88L143.24 38.88L143.24 45.2L130.44 45.2L130.44 49.4L145.68 49.4L145.68 56L121.6 56M166.32 28Q170.28 28 173.44 29.2Q176.6 30.4 178.46 32.74Q180.32 35.08 180.32 38.44L180.32 38.44L171.88 38.44Q171.88 36.72 170.36 35.66Q168.84 34.6 166.68 34.6L166.68 34.6Q163.56 34.6 161.96 36.26Q160.36 37.92 160.36 40.96L160.36 40.96L160.36 43.52Q160.36 46.56 161.96 48.22Q163.56 49.88 166.68 49.88L166.68 49.88Q168.84 49.88 170.36 48.86Q171.88 47.84 171.88 46.24L171.88 46.24L165.64 46.24L165.64 40.64L180.32 40.64L180.32 56L175.76 56L174.88 53.28Q171.12 56.48 165.04 56.48L165.04 56.48Q158.2 56.48 154.76 52.9Q151.32 49.32 151.32 42.24L151.32 42.24Q151.32 35.24 155.22 31.62Q159.12 28 166.32 28L166.32 28M187.8 56L187.8 28.48L211.6 28.48L211.6 35.08L196.64 35.08L196.64 38.88L209.44 38.88L209.44 45.2L196.64 45.2L196.64 49.4L211.88 49.4L211.88 56L187.8 56M230.6 28.48Q245.04 28.48 245.04 42.24L245.04 42.24Q245.04 56 230.6 56L230.6 56L218.68 56L218.68 28.48L230.6 28.48M227.52 35.08L227.52 49.4L230.44 49.4Q236 49.4 236 43.44L236 43.44L236 41.04Q236 35.08 230.44 35.08L230.44 35.08L227.52 35.08"/>
</svg>
